<svg id="visual" viewBox="0 0 960 540" width="960" height="540" xmlns="http://www.w3.org/2000/svg" xmlns:xlink="http://www.w3.org/1999/xlink" version="1.1"><rect x="0" y="0" width="960" height="540" fill="#000000"></rect><defs><linearGradient id="grad1_0" x1="43.8%" y1="100%" x2="100%" y2="0%"><stop offset="14.444444444444446%" stop-color="#000000" stop-opacity="1"></stop><stop offset="85.55555555555554%" stop-color="#000000" stop-opacity="1"></stop></linearGradient></defs><defs><linearGradient id="grad2_0" x1="0%" y1="100%" x2="56.3%" y2="0%"><stop offset="14.444444444444446%" stop-color="#000000" stop-opacity="1"></stop><stop offset="85.55555555555554%" stop-color="#000000" stop-opacity="1"></stop></linearGradient></defs><g transform="translate(960, 540)"><path d="M-216 0C-208.2 -26.3 -200.4 -52.5 -191.2 -79.2C-182.1 -105.9 -171.5 -133 -152.7 -152.7C-134 -172.4 -107.2 -184.7 -80.4 -194C-53.6 -203.3 -26.8 -209.7 0 -216L0 0Z" fill="#C50E6A"></path></g><g transform="translate(0, 0)"><path d="M216 0C208.4 26.6 200.8 53.1 191.2 79.2C181.7 105.3 170.2 130.9 152 152C133.9 173.1 109.1 189.7 82.7 199.6C56.2 209.5 28.1 212.7 0 216L0 0Z" fill="#C50E6A"></path></g></svg>